<?xml version="1.0" encoding="UTF-8"?>
<svg version="1.1" xmlns="http://www.w3.org/2000/svg" width="32" height="32">
<path d="M0 0 C2.375 0.25 2.375 0.25 5 1 C6.7941758 3.56310828 7 4.83119306 7 8 C7.721875 7.67 8.44375 7.34 9.1875 7 C12.01697427 5.99396471 14.02895466 5.83022598 17 6 C17.45763495 11.72043683 16.71653644 14.59883843 13 19 C8.64938655 22.93626932 5.08222994 23.63883919 -0.6015625 23.3828125 C-5.61242131 22.58303373 -8.20616104 19.94007245 -11.375 16.1875 C-13.2504825 12.50866894 -13.32596702 10.0745878 -13 6 C-5.25 6.875 -5.25 6.875 -3 8 C-2.87625 7.236875 -2.7525 6.47375 -2.625 5.6875 C-2 3 -2 3 0 0 Z M1 5 C0.67 7.31 0.34 9.62 0 12 C1.32 12 2.64 12 4 12 C4.25030977 9.58380177 4.25030977 9.58380177 4 7 C3.01 6.34 2.02 5.68 1 5 Z M-9 10 C-7.64978174 14.41889613 -5.73884332 16.34345343 -2 19 C-1.34 18.67 -0.68 18.34 0 18 C-2.51407619 13.71675909 -4.12314139 11.35468295 -9 10 Z M12 10 C7.71675909 12.51407619 5.35468295 14.12314139 4 19 C7.70066609 18.09539273 9.56497978 17.56131642 11.9375 14.5 C12.288125 13.675 12.63875 12.85 13 12 C12.67 11.34 12.34 10.68 12 10 Z " fill="#F53047" transform="translate(14,8)"/>
<path d="M0 0 C1.875 0.25 1.875 0.25 4 1 C5.72101535 3.58152302 6 4.84918025 6 8 C6.721875 7.67 7.44375 7.34 8.1875 7 C11.01697427 5.99396471 13.02895466 5.83022598 16 6 C16.45763495 11.72043683 15.71653644 14.59883843 12 19 C7.06760848 23.09283552 7.06760848 23.09283552 3.125 22.75 C2.42375 22.5025 1.7225 22.255 1 22 C1.33 21.01 1.66 20.02 2 19 C3.134375 18.731875 4.26875 18.46375 5.4375 18.1875 C6.613125 17.795625 7.78875 17.40375 9 17 C10.53146378 13.99405579 10.53146378 13.99405579 11 11 C7.42895561 12.87949705 5.45255699 14.17053157 4 18 C3.01 18 2.02 18 1 18 C1.09539063 17.24074219 1.19078125 16.48148438 1.2890625 15.69921875 C1.39992188 14.70535156 1.51078125 13.71148437 1.625 12.6875 C1.74101562 11.70136719 1.85703125 10.71523438 1.9765625 9.69921875 C2.25476995 6.77342584 2.25476995 6.77342584 0 4 C0 2.68 0 1.36 0 0 Z " fill="#FD5A11" transform="translate(15,8)"/>
<path d="M0 0 C3.92779624 1.99960536 6.77167243 4.16232474 9 8 C9 8.99 9 9.98 9 11 C7.68 11 6.36 11 5 11 C4.7525 10.38125 4.505 9.7625 4.25 9.125 C2.69447068 6.48060015 1.92378529 5.92330062 -1 5 C-5.28675598 4.57661669 -9.42421917 4.31816438 -13 7 C-14.34294481 8.65893182 -15.67744688 10.32476605 -17 12 C-17.66 12 -18.32 12 -19 12 C-18.86210108 9.03517326 -18.71055664 6.78765516 -16.66796875 4.5234375 C-11.11888944 -0.09404456 -7.07916847 -0.79382381 0 0 Z " fill="#FC5A13" transform="translate(21,1)"/>
<path d="M0 0 C1.875 0.25 1.875 0.25 4 1 C5.72101535 3.58152302 6 4.84918025 6 8 C6.99 7.67 7.98 7.34 9 7 C9.66 8.32 10.32 9.64 11 11 C9.824375 11.61875 9.824375 11.61875 8.625 12.25 C5.94108344 14.0392777 5.11901051 15.04988139 4 18 C3.01 18 2.02 18 1 18 C1.09539063 17.24074219 1.19078125 16.48148438 1.2890625 15.69921875 C1.39992188 14.70535156 1.51078125 13.71148437 1.625 12.6875 C1.74101562 11.70136719 1.85703125 10.71523438 1.9765625 9.69921875 C2.25476995 6.77342584 2.25476995 6.77342584 0 4 C0 2.68 0 1.36 0 0 Z " fill="#F84031" transform="translate(15,8)"/>
<path d="M0 0 C7.75 0.75 7.75 0.75 10 3 C9.67 3.66 9.34 4.32 9 5 C6.9375 5.625 6.9375 5.625 5 6 C5.99 7.485 5.99 7.485 7 9 C7.125 11.6875 7.125 11.6875 7 14 C4.3354186 12.98929671 3.04804128 12.0600516 1.25 9.8125 C-0.27739989 6.37585024 -0.21888362 3.72102151 0 0 Z " fill="#F11A62" transform="translate(1,14)"/>
<path d="M0 0 C0.99 0.33 1.98 0.66 3 1 C2.67 1.33 2.34 1.66 2 2 C2.66 2.66 3.32 3.32 4 4 C2.9275 4.391875 1.855 4.78375 0.75 5.1875 C-2.91466833 6.72740104 -4.6513688 8.78150539 -7 12 C-7.66 12 -8.32 12 -9 12 C-8.86210108 9.03517326 -8.71055664 6.78765516 -6.66796875 4.5234375 C-4.56169008 2.77076766 -2.45428809 1.22714404 0 0 Z " fill="#F2195F" transform="translate(11,1)"/>
<path d="M0 0 C1.27596315 3.82788944 0.62344752 5.36656983 -1 9 C-2.8125 10.4375 -2.8125 10.4375 -5 11 C-7.75 10.625 -7.75 10.625 -10 10 C-9.67 9.01 -9.34 8.02 -9 7 C-7.865625 6.71125 -6.73125 6.4225 -5.5625 6.125 C-1.82341699 5.39591977 -1.82341699 5.39591977 -0.5625 2.375 C-0.376875 1.59125 -0.19125 0.8075 0 0 Z " fill="#FA4528" transform="translate(26,20)"/>
<path d="M0 0 C3.625 -0.1875 3.625 -0.1875 7 0 C6.67 1.32 6.34 2.64 6 4 C3.36 3.67 0.72 3.34 -2 3 C-1.34 2.01 -0.68 1.02 0 0 Z " fill="#F73C39" transform="translate(14,1)"/>
<path d="M0 0 C1.98 0.99 3.96 1.98 6 3 C6 3.99 6 4.98 6 6 C5.01 6.33 4.02 6.66 3 7 C0.8125 5.5625 0.8125 5.5625 -1 4 C-0.67 2.68 -0.34 1.36 0 0 Z " fill="#F42650" transform="translate(8,24)"/>
<path d="M0 0 C-0.33 0.33 -0.66 0.66 -1 1 C-0.34 1.66 0.32 2.32 1 3 C-0.98 3.66 -2.96 4.32 -5 5 C-5.66 3.68 -6.32 2.36 -7 1 C-3.375 -1.125 -3.375 -1.125 0 0 Z " fill="#F42650" transform="translate(14,2)"/>
<path d="M0 0 C0.99 0.99 1.98 1.98 3 3 C1.35 4.32 -0.3 5.64 -2 7 C-3 5 -3 5 -2.6875 2.9375 C-2 1 -2 1 0 0 Z " fill="#FA4D23" transform="translate(23,15)"/>
<path d="M0 0 C2.475 0.495 2.475 0.495 5 1 C5 2.65 5 4.3 5 6 C2.525 5.01 2.525 5.01 0 4 C0 2.68 0 1.36 0 0 Z " fill="#FA4F22" transform="translate(20,2)"/>
</svg>
