<svg xmlns="http://www.w3.org/2000/svg" width="px" height="px" viewBox="0 0 384 384"><path d="M368 304h-32v-32c0-8.836-7.164-16-16-16s-16 7.164-16 16v32h-32c-8.836 0-16 7.164-16 16s7.164 16 16 16h32v32c0 8.836 7.164 16 16 16s16-7.164 16-16v-32h32c8.836 0 16-7.164 16-16s-7.164-16-16-16m0 0" style="stroke:none;fill-rule:nonzero;fill:#000;fill-opacity:1"/><path d="M336 96h-48c0-53.02-42.98-96-96-96S96 42.98 96 96H48c-26.508 0-48 21.492-48 48v160c.055 44.16 35.84 79.945 80 80h144c8.836 0 16-7.164 16-16s-7.164-16-16-16H80c-26.508 0-48-21.492-48-48V144c0-8.836 7.164-16 16-16h48v32c0 8.836 7.164 16 16 16s16-7.164 16-16v-32h128v32c0 8.836 7.164 16 16 16s16-7.164 16-16v-32h48c8.836 0 16 7.164 16 16v80c0 8.836 7.164 16 16 16s16-7.164 16-16v-80c0-26.508-21.492-48-48-48m-208 0c0-35.348 28.652-64 64-64s64 28.652 64 64Zm0 0" style="stroke:none;fill-rule:nonzero;fill:#000;fill-opacity:1"/></svg>