<svg xmlns="http://www.w3.org/2000/svg" width="px" height="px" viewBox="0 0 384 384"><path d="M192 192c53.02 0 96-42.98 96-96S245.02 0 192 0 96 42.98 96 96c.055 52.996 43.004 95.945 96 96m0-160c35.348 0 64 28.652 64 64s-28.652 64-64 64-64-28.652-64-64 28.652-64 64-64M192 224c-79.492.09-143.91 64.508-144 144 0 8.836 7.164 16 16 16s16-7.164 16-16c0-61.855 50.145-112 112-112s112 50.145 112 112c0 8.836 7.164 16 16 16s16-7.164 16-16c-.09-79.492-64.508-143.91-144-144m0 0" style="stroke:none;fill-rule:nonzero;fill:#000;fill-opacity:1"/></svg>